<?xml version="1.0" standalone="no"?><!DOCTYPE svg PUBLIC "-//W3C//DTD SVG 1.1//EN" "http://www.w3.org/Graphics/SVG/1.1/DTD/svg11.dtd"><svg t="1718124249560" class="icon" viewBox="0 0 1024 1024" version="1.1" xmlns="http://www.w3.org/2000/svg" p-id="10630" xmlns:xlink="http://www.w3.org/1999/xlink" width="200" height="200"><path d="M512 106.5c54.8 0 107.9 10.7 157.8 31.8 48.3 20.4 91.6 49.7 128.9 86.9s66.5 80.6 86.9 128.9c21.1 50 31.8 103.1 31.8 157.8s-10.7 107.9-31.8 157.8c-20.4 48.3-49.7 91.6-86.9 128.9s-80.6 66.5-128.9 86.9c-50 21.1-103.1 31.8-157.8 31.8-54.8 0-107.9-10.7-157.8-31.8-48.3-20.4-91.6-49.7-128.9-86.9-37.3-37.3-66.5-80.6-86.9-128.9-21.1-50-31.8-103.1-31.8-157.8s10.7-107.9 31.8-157.8c20.4-48.3 49.7-91.6 86.9-128.9 37.3-37.3 80.6-66.5 128.9-86.9 49.9-21.1 103-31.8 157.8-31.8m0-42.5C264.6 64 64 264.6 64 512s200.6 448 448 448 448-200.6 448-448S759.4 64 512 64z" fill="#2c2c2c" p-id="10631"></path><path d="M737 655.3H287c-9.4 0-17-7.6-17-17V319c0-9.4 7.6-17 17-17h450c9.4 0 17 7.6 17 17v73.3c0 9.4-7.6 17-17 17s-17-7.6-17-17V336H304v285.3h416V479.9c0-9.4 7.6-17 17-17s17 7.6 17 17v158.3c0 9.4-7.6 17.1-17 17.1zM608 738.3H416c-9.4 0-17-7.6-17-17s7.6-17 17-17h192c9.4 0 17 7.6 17 17s-7.6 17-17 17z" fill="#2c2c2c" p-id="10632"></path><path d="M549.5 738.3h-75.1c-5 0-9.8-2.2-13-6-3.2-3.8-4.6-8.9-3.8-13.8l14.1-83.1c1.4-8.2 8.5-14.2 16.8-14.2h46.8c8.3 0 15.4 6 16.8 14.2l14.1 83.1c0.8 4.9-0.5 10-3.8 13.8-3.1 3.8-7.9 6-12.9 6z m-54.9-34h34.8l-8.4-49.1h-18l-8.4 49.1zM738 570.4H286c-9.4 0-17-7.6-17-17s7.6-17 17-17h452c9.4 0 17 7.6 17 17s-7.6 17-17 17zM517.7 612.3h-11.3c-9.4 0-17-7.6-17-17s7.6-17 17-17h11.3c9.4 0 17 7.6 17 17s-7.6 17-17 17z" fill="#2c2c2c" p-id="10633"></path></svg>